<svg width="226" height="230" viewBox="0 0 226 230" fill="none" xmlns="http://www.w3.org/2000/svg">
<path d="M173.454 114.081C173.401 96.1361 166.249 78.9411 153.56 66.252C140.871 53.5629 123.676 46.411 105.731 46.3585V46.3585C105.149 46.3585 104.569 46.3659 103.99 46.3807C58.1861 47.5515 29.3573 96.4033 49.4973 137.559L89.9291 220.18C89.9361 222.573 90.8897 224.866 92.5815 226.558C94.2734 228.249 96.5661 229.203 98.9587 229.21H119.276L127.553 204.378L147.609 229.21H174.959L183.236 204.378L203.292 229.21H216.345C218.738 229.203 221.03 228.249 222.722 226.558C224.414 224.866 225.368 222.573 225.375 220.18L173.454 114.081Z" fill="#CFCCE0"/>
<path d="M72.6221 113.329C83.0117 113.329 91.434 104.906 91.434 94.5169C91.434 84.1274 83.0117 75.705 72.6221 75.705C62.2326 75.705 53.8102 84.1274 53.8102 94.5169C53.8102 104.906 62.2326 113.329 72.6221 113.329Z" fill="#3F3D56"/>
<path d="M123.038 113.329C133.427 113.329 141.85 104.906 141.85 94.5169C141.85 84.1274 133.427 75.705 123.038 75.705C112.648 75.705 104.226 84.1274 104.226 94.5169C104.226 104.906 112.648 113.329 123.038 113.329Z" fill="#3F3D56"/>
<path d="M72.6221 101.289C76.3624 101.289 79.3944 98.2571 79.3944 94.5169C79.3944 90.7767 76.3624 87.7446 72.6221 87.7446C68.8819 87.7446 65.8499 90.7767 65.8499 94.5169C65.8499 98.2571 68.8819 101.289 72.6221 101.289Z" fill="#CFCCE0"/>
<path d="M123.038 101.289C126.778 101.289 129.81 98.2571 129.81 94.5169C129.81 90.7767 126.778 87.7446 123.038 87.7446C119.298 87.7446 116.266 90.7767 116.266 94.5169C116.266 98.2571 119.298 101.289 123.038 101.289Z" fill="#CFCCE0"/>
<path d="M79.3944 86.2397C81.4723 86.2397 83.1568 84.5552 83.1568 82.4773C83.1568 80.3994 81.4723 78.7149 79.3944 78.7149C77.3165 78.7149 75.632 80.3994 75.632 82.4773C75.632 84.5552 77.3165 86.2397 79.3944 86.2397Z" fill="#CFCCE0"/>
<path d="M129.81 86.2397C131.888 86.2397 133.573 84.5552 133.573 82.4773C133.573 80.3994 131.888 78.7149 129.81 78.7149C127.732 78.7149 126.048 80.3994 126.048 82.4773C126.048 84.5552 127.732 86.2397 129.81 86.2397Z" fill="#CFCCE0"/>
<path d="M96.3747 147.284C102.45 147.284 107.375 142.359 107.375 136.284C107.375 130.209 102.45 125.284 96.3747 125.284C90.2996 125.284 85.3747 130.209 85.3747 136.284C85.3747 142.359 90.2996 147.284 96.3747 147.284Z" fill="#3F3D56"/>
<path d="M145.277 70.7356L161.145 52.7251C163.735 49.7861 166.424 46.77 169.958 45.0795C173.491 43.389 178.123 43.3551 180.96 46.0554C185.286 50.1724 182.214 58.5654 176.432 60.0592C170.65 61.5531 164.474 57.2526 162.448 51.635C161.27 48.0362 161.398 44.1373 162.811 40.6239C164.223 37.1105 166.829 34.2074 170.17 32.4252C178.673 28.2103 188.967 32.4027 198.308 30.7225C210.1 28.6015 218.784 15.7271 216.334 4" fill="#CFCCE0"/>
<path d="M71.4722 66.7356L55.604 48.7251C53.0146 45.7861 50.3252 42.77 46.7918 41.0795C43.2584 39.389 38.6265 39.3551 35.7892 42.0554C31.4632 46.1724 34.5351 54.5654 40.3172 56.0592C46.0992 57.5531 52.275 53.2526 54.3014 47.635C55.4794 44.0362 55.351 40.1373 53.9386 36.6239C52.5263 33.1105 49.9205 30.2074 46.5795 28.4252C38.0759 24.2103 27.7819 28.4027 18.4409 26.7225C6.64983 24.6015 -2.03437 11.7271 0.415745 0" fill="#CFCCE0"/>
</svg>
