<?xml version="1.0" encoding="UTF-8" standalone="no"?>
<!-- Created with Inkscape (http://www.inkscape.org/) -->

<svg
   xmlns:dc="http://purl.org/dc/elements/1.1/"
   xmlns:cc="http://creativecommons.org/ns#"
   xmlns:rdf="http://www.w3.org/1999/02/22-rdf-syntax-ns#"
   xmlns:svg="http://www.w3.org/2000/svg"
   xmlns="http://www.w3.org/2000/svg"
   xmlns:sodipodi="http://sodipodi.sourceforge.net/DTD/sodipodi-0.dtd"
   xmlns:inkscape="http://www.inkscape.org/namespaces/inkscape"
   width="726.08704"
   height="871.45581"
   viewBox="0 0 726.08707 871.45581"
   version="1.1"
   id="svg2478"
   inkscape:export-filename="/home/sun/bitmap.png"
   inkscape:export-xdpi="96"
   inkscape:export-ydpi="96"
   inkscape:version="0.92.3 (2405546, 2018-03-11)"
   sodipodi:docname="booo.svg">
  <defs
     id="defs2472" />
  <sodipodi:namedview
     id="base"
     pagecolor="#ffffff"
     bordercolor="#666666"
     borderopacity="1.0"
     inkscape:pageopacity="0.0"
     inkscape:pageshadow="2"
     inkscape:zoom="0.49497475"
     inkscape:cx="263.60994"
     inkscape:cy="486.52451"
     inkscape:document-units="px"
     inkscape:current-layer="g3254"
     showgrid="false"
     units="px"
     inkscape:window-width="1600"
     inkscape:window-height="843"
     inkscape:window-x="0"
     inkscape:window-y="0"
     inkscape:window-maximized="1" />
  <metadata
     id="metadata2475">
    <rdf:RDF>
      <cc:Work
         rdf:about="">
        <dc:format>image/svg+xml</dc:format>
        <dc:type
           rdf:resource="http://purl.org/dc/dcmitype/StillImage" />
        <dc:title></dc:title>
      </cc:Work>
    </rdf:RDF>
  </metadata>
  <g
     inkscape:label="boo"
     inkscape:groupmode="layer"
     id="layer1"
     transform="translate(-605.5279,-149.64891)"
     style="display:inline">
    <g
       id="g3045"
       transform="translate(571.42857,22.857143)">
      <path
         style="display:inline;fill:none;stroke:#000000;stroke-width:11.36790752;stroke-linecap:round;stroke-linejoin:round;stroke-miterlimit:4;stroke-dasharray:none;stroke-dashoffset:0;stroke-opacity:1;paint-order:markers stroke fill"
         d="m 67.638877,819.63532 c 56.327163,-73.46655 53.043963,-170.50301 52.693943,-258.26326 3.05601,-117.62508 18.06274,-245.35625 98.37019,-337.6556 70.03865,-80.36615 196.04462,-119.91677 293.62635,-67.20813 84.1342,50.54587 127.6617,144.93514 156.4391,234.93346 31.0825,106.03518 29.5034,217.53091 41.2068,326.40396 3.6991,42.29592 58.766,77.71861 27.8958,115.70016 -30.8702,37.98163 -40.2289,-43.43364 -79.3763,-24.41246 -27.4781,27.50804 -63.2088,61.11781 -101.0271,25.94131 -44.4348,-41.27657 -71.7773,33.78013 -117.5912,20.37015 -20.7096,-14.81008 -39.46564,-56.79944 -70.49083,-28.55783 -17.03396,18.48375 -28.77989,64.26036 -61.24291,34.55844 -18.11064,-21.42094 -49.26479,-71.24245 -72.58857,-26.97435 -14.0343,29.94139 -56.68726,41.2132 -59.59132,-1.03611 -10.71532,-28.27669 -41.37975,-20.37165 -50.16797,9.21914 -8.78824,29.59086 -77.575643,19.42627 -58.155693,-23.01902 z"
         id="path826"
         inkscape:connector-curvature="0"
         sodipodi:nodetypes="ccccccccccccccccc" />
      <path
         style="display:inline;fill:none;stroke:#000000;stroke-width:7.26113987;stroke-linecap:round;stroke-linejoin:round;stroke-miterlimit:4;stroke-dasharray:none;stroke-dashoffset:0;stroke-opacity:1;paint-order:markers stroke fill"
         d="m 247.63075,398.19149 c 10.7516,-32.34508 42.28589,-73.54603 80.97091,-57.08193 20.12696,8.85293 34.86872,26.22352 47.59469,43.54872"
         id="path828"
         inkscape:connector-curvature="0" />
      <path
         style="display:inline;fill:none;stroke:#000000;stroke-width:8.71539593;stroke-linecap:round;stroke-linejoin:round;stroke-miterlimit:4;stroke-dasharray:none;stroke-dashoffset:0;stroke-opacity:1;paint-order:markers stroke fill"
         d="m 671.22066,394.13156 c 30.7201,-12.38067 58.6024,-59.04839 78.0853,-57.86312 20.0689,8.55354 -8.9997,94.92056 -49.026,114.23792 -4.2985,2.30952 -9.6724,1.28602 -14.1727,3.17134"
         id="path832"
         inkscape:connector-curvature="0"
         sodipodi:nodetypes="cccc" />
      <path
         style="display:inline;fill:none;stroke:#000000;stroke-width:8.71539593;stroke-linecap:round;stroke-linejoin:round;stroke-miterlimit:4;stroke-dasharray:none;stroke-dashoffset:0;stroke-opacity:1;paint-order:markers stroke fill"
         d="m 127.18506,438.79114 c -20.77672,-13.37596 -37.811983,-31.53661 -55.682193,-48.39842 -7.63536,-9.07886 -33.01549,-28.70112 -33.04001,-7.97859 -0.19757,13.37081 4.76913,26.19159 9.63081,38.43663 9.85849,22.76919 23.47697,44.72131 43.22093,60.19155 8.862093,6.79117 19.273843,11.9165 30.457183,13.23511"
         id="path834"
         inkscape:connector-curvature="0"
         sodipodi:nodetypes="cccccc" />
      <path
         style="display:inline;fill:#000000;fill-opacity:1;stroke:#000000;stroke-width:2.65564489;stroke-linecap:square;stroke-linejoin:round;stroke-miterlimit:4;stroke-dasharray:none;stroke-dashoffset:0;paint-order:markers stroke fill"
         d="m 325.69577,996.89391 c -40.28639,-3.67361 -116.84789,-11.26852 -106.50836,-49.66512 31.76694,-30.78945 99.12642,-28.56858 149.1117,-35.3967 66.19935,-6.75329 133.13345,-0.21554 199.60925,1.20153 59.0898,-3.23021 130.7845,46.71734 40.9779,63.18143 -72.0283,14.89665 -147.4638,23.12086 -222.51,19.52631 -20.22886,0.65379 -40.54085,1.31882 -60.68049,1.15255 z"
         id="path1249"
         inkscape:connector-curvature="0" />
      <path
         style="display:inline;fill:none;stroke:#000000;stroke-width:7.26113987;stroke-linecap:round;stroke-linejoin:round;stroke-miterlimit:4;stroke-dasharray:none;stroke-dashoffset:0;stroke-opacity:1;paint-order:markers stroke fill"
         d="m 417.60566,389.55332 c 10.7516,-32.34508 42.2858,-73.54603 80.9709,-57.08194 20.127,8.85293 34.8687,26.22353 47.5947,43.54872"
         id="path828-3"
         inkscape:connector-curvature="0" />
    </g>
    <g
       transform="translate(1514.2857,20)"
       id="g3254" />
  </g>
</svg>
