<?xml version="1.0" encoding="UTF-8" standalone="no"?>
<!-- Created with Inkscape (http://www.inkscape.org/) -->

<svg
   xmlns:dc="http://purl.org/dc/elements/1.1/"
   xmlns:cc="http://creativecommons.org/ns#"
   xmlns:rdf="http://www.w3.org/1999/02/22-rdf-syntax-ns#"
   xmlns:svg="http://www.w3.org/2000/svg"
   xmlns="http://www.w3.org/2000/svg"
   xmlns:sodipodi="http://sodipodi.sourceforge.net/DTD/sodipodi-0.dtd"
   xmlns:inkscape="http://www.inkscape.org/namespaces/inkscape"
   width="210mm"
   height="297mm"
   viewBox="0 0 210 297"
   version="1.1"
   id="svg8"
   inkscape:version="0.92.3 (2405546, 2018-03-11)"
   sodipodi:docname="booo.inkscape.svg">
  <defs
     id="defs2">
    <marker
       inkscape:stockid="Arrow1Lstart"
       orient="auto"
       refY="0.0"
       refX="0.0"
       id="Arrow1Lstart"
       style="overflow:visible"
       inkscape:isstock="true">
      <path
         id="path853"
         d="M 0.0,0.0 L 5.0,-5.0 L -12.5,0.0 L 5.0,5.0 L 0.0,0.0 z "
         style="fill-rule:evenodd;stroke:#000000;stroke-width:1.0pt"
         transform="scale(0.8) translate(12.5,0)" />
    </marker>
  </defs>
  <sodipodi:namedview
     id="base"
     pagecolor="#ffffff"
     bordercolor="#666666"
     borderopacity="1.0"
     inkscape:pageopacity="0.0"
     inkscape:pageshadow="2"
     inkscape:zoom="0.35"
     inkscape:cx="637.9787"
     inkscape:cy="605.15113"
     inkscape:document-units="mm"
     inkscape:current-layer="g1284"
     showgrid="false"
     inkscape:window-width="1600"
     inkscape:window-height="843"
     inkscape:window-x="0"
     inkscape:window-y="0"
     inkscape:window-maximized="1" />
  <metadata
     id="metadata5">
    <rdf:RDF>
      <cc:Work
         rdf:about="">
        <dc:format>image/svg+xml</dc:format>
        <dc:type
           rdf:resource="http://purl.org/dc/dcmitype/StillImage" />
        <dc:title></dc:title>
      </cc:Work>
    </rdf:RDF>
  </metadata>
  <g
     inkscape:label="Layer 1"
     inkscape:groupmode="layer"
     id="layer1"
     style="display:inline">
    <g
       id="g841"
       style="stroke:#000000;stroke-width:1.00541663;stroke-linecap:round;stroke-linejoin:round;stroke-miterlimit:4;stroke-dasharray:none;stroke-dashoffset:0;paint-order:markers stroke fill"
       transform="translate(-7.4835468,0.53453906)">
      <path
         style="fill:#800000;stroke-width:0.58340625;stroke-miterlimit:4;stroke-dasharray:none;stroke-linecap:square;fill-opacity:1"
         d="m 6.3756057,250.47431 c 1.4791556,-0.22843 -0.4549268,0.45372 0,0 z"
         id="path1247" />
      <g
         id="g1284"
         transform="matrix(1.8946513,0,0,1.8946513,-100.85154,-129.67527)">
        <path
           sodipodi:nodetypes="ccccccccccccccccc"
           inkscape:connector-curvature="0"
           id="path826"
           d="m 66.712798,180.8506 c 7.865947,-10.25942 7.407457,-23.81032 7.358577,-36.06582 0.426765,-16.42605 2.522418,-34.26339 13.737153,-47.152763 9.780722,-11.222934 27.377142,-16.746079 41.004192,-9.385448 11.74912,7.058605 17.82763,20.239831 21.84632,32.807871 4.3406,14.80755 4.12008,30.37765 5.75443,45.5815 0.51657,5.90652 8.20653,10.85321 3.89558,16.15724 -4.31095,5.30404 -5.61787,-6.0654 -11.0847,-3.40914 -3.83725,3.84143 -8.82695,8.53495 -14.10818,3.62264 -6.20521,-5.76417 -10.02352,4.71731 -16.42132,2.84464 -2.89204,-2.06819 -5.51128,-7.9319 -9.84387,-3.98803 -2.37875,2.58121 -4.01904,8.9738 -8.55242,4.826 -2.529106,-2.99138 -6.879705,-9.94883 -10.136812,-3.7669 -1.959855,4.18124 -7.916235,5.75532 -8.32178,-0.14469 -1.496368,-3.94877 -5.778579,-2.84485 -7.005833,1.28743 -1.227255,4.13229 -10.833244,2.71283 -8.121297,-3.21455 z"
           style="fill:none;stroke:#000000;stroke-width:1.58749998;stroke-linecap:round;stroke-linejoin:round;stroke-miterlimit:4;stroke-dasharray:none;stroke-dashoffset:0;stroke-opacity:1;paint-order:markers stroke fill" />
        <path
           inkscape:connector-curvature="0"
           id="path828"
           d="m 91.848214,121.99702 c 1.501435,-4.51691 5.90512,-10.27052 11.307386,-7.97135 2.81068,1.23629 4.86933,3.66205 6.64648,6.08147"
           style="fill:none;stroke:#000000;stroke-width:1.01400006;stroke-linecap:round;stroke-linejoin:round;stroke-miterlimit:4;stroke-dasharray:none;stroke-dashoffset:0;stroke-opacity:1;paint-order:markers stroke fill" />
        <path
           sodipodi:nodetypes="cccc"
           inkscape:connector-curvature="0"
           id="path832"
           d="m 151.00149,121.43006 c 4.28999,-1.72893 8.18368,-8.24596 10.90442,-8.08044 2.80257,1.19448 -1.25679,13.25542 -6.84636,15.95304 -0.60027,0.32252 -1.35073,0.17959 -1.97919,0.44287"
           style="fill:none;stroke:#000000;stroke-width:1.21708333;stroke-linecap:round;stroke-linejoin:round;stroke-miterlimit:4;stroke-dasharray:none;stroke-dashoffset:0;stroke-opacity:1;paint-order:markers stroke fill" />
        <path
           sodipodi:nodetypes="cccccc"
           inkscape:connector-curvature="0"
           id="path834"
           d="m 75.028273,127.66666 c -2.901417,-1.86792 -5.280348,-4.40401 -7.775878,-6.75872 -1.06626,-1.26784 -4.610531,-4.00804 -4.613956,-1.11419 -0.02759,1.8672 0.665998,3.65759 1.344919,5.36758 1.376713,3.17966 3.278501,6.24522 6.035695,8.4056 1.237569,0.94837 2.691544,1.66411 4.253269,1.84825"
           style="fill:none;stroke:#000000;stroke-width:1.21708333;stroke-linecap:round;stroke-linejoin:round;stroke-miterlimit:4;stroke-dasharray:none;stroke-dashoffset:0;stroke-opacity:1;paint-order:markers stroke fill" />
        <path
           inkscape:connector-curvature="0"
           id="path1249"
           d="m 102.7498,205.60432 c -5.625894,-0.51301 -16.317516,-1.57362 -14.873627,-6.93561 4.436174,-4.29967 13.842757,-3.98953 20.823077,-4.94306 9.24457,-0.94308 18.59176,-0.0301 27.87494,0.16779 8.25174,-0.45109 18.26373,6.52396 5.72246,8.82313 -10.05858,2.08028 -20.59296,3.22877 -31.07297,2.7268 -2.82491,0.0913 -5.66143,0.18417 -8.47388,0.16095 z"
           style="fill:#000000;fill-opacity:1;stroke-width:0.3708542;stroke-linecap:square;stroke-miterlimit:4;stroke-dasharray:none" />
        <path
           inkscape:connector-curvature="0"
           id="path828-3"
           d="m 115.58478,120.79072 c 1.50144,-4.51691 5.90512,-10.27052 11.30739,-7.97135 2.81068,1.23629 4.86933,3.66205 6.64648,6.08147"
           style="display:inline;fill:none;stroke:#000000;stroke-width:1.01400006;stroke-linecap:round;stroke-linejoin:round;stroke-miterlimit:4;stroke-dasharray:none;stroke-dashoffset:0;stroke-opacity:1;paint-order:markers stroke fill" />
      </g>
    </g>
  </g>
</svg>
